<svg width="25" height="25" viewBox="0 0 25 25" fill="none" xmlns="http://www.w3.org/2000/svg">
<path d="M23 23L17.6845 17.6845M17.6845 17.6845C18.5377 16.8313 19.2144 15.8185 19.6762 14.7038C20.1379 13.5891 20.3755 12.3943 20.3755 11.1878C20.3755 9.98121 20.1379 8.78647 19.6762 7.67176C19.2144 6.55705 18.5377 5.5442 17.6845 4.69103C16.8313 3.83787 15.8185 3.16111 14.7038 2.69938C13.5891 2.23765 12.3943 2 11.1878 2C9.98121 2 8.78647 2.23765 7.67176 2.69938C6.55705 3.16111 5.5442 3.83787 4.69103 4.69103C2.96799 6.41407 2 8.75102 2 11.1878C2 13.6245 2.96799 15.9615 4.69103 17.6845C6.41407 19.4075 8.75102 20.3755 11.1878 20.3755C13.6245 20.3755 15.9615 19.4075 17.6845 17.6845Z" stroke="#F96D00" stroke-width="3.5" stroke-linecap="round" stroke-linejoin="round"/>
</svg>
